<svg width="32" height="32" viewBox="0 0 32 32" fill="none" xmlns="http://www.w3.org/2000/svg">
<path fill-rule="evenodd" clip-rule="evenodd" d="M17.3333 2.66659C17.3333 1.93021 16.7363 1.33325 15.9999 1.33325C15.2635 1.33325 14.6666 1.93021 14.6666 2.66659V4.19317C12.7389 4.76687 11.3333 6.55257 11.3333 8.66659C11.3333 9.90418 11.815 11.0293 12.6012 11.8645L7.23993 21.0979C6.42366 20.489 5.67275 19.797 4.99959 19.0343C4.5123 18.4822 3.66972 18.4297 3.11762 18.917C2.56553 19.4042 2.513 20.2468 3.00028 20.7989C3.86228 21.7755 4.83299 22.6545 5.89348 23.4167L2.84676 28.6639C2.477 29.3007 2.69349 30.1167 3.3303 30.4864C3.96711 30.8562 4.7831 30.6397 5.15286 30.0029L8.17249 24.8024C10.5237 25.9944 13.1835 26.6666 15.9999 26.6666C18.8162 26.6666 21.4761 25.9945 23.8272 24.8025L26.8468 30.0029C27.2165 30.6397 28.0325 30.8562 28.6693 30.4864C29.3061 30.1167 29.5226 29.3007 29.1529 28.6639L26.1062 23.4169C27.1668 22.6546 28.1375 21.7756 28.9996 20.7989C29.4869 20.2468 29.4343 19.4042 28.8822 18.917C28.3302 18.4297 27.4876 18.4822 27.0003 19.0343C26.3271 19.797 25.5761 20.4891 24.7598 21.098L19.3985 11.8647C20.1848 11.0294 20.6666 9.90425 20.6666 8.66659C20.6666 6.55257 19.2609 4.76687 17.3333 4.19317V2.66659ZM15.9999 13.3333C16.3763 13.3333 16.7423 13.2887 17.0929 13.2046L22.4856 22.492C20.5301 23.4578 18.3286 24 15.9999 24C13.6712 24 11.4696 23.4577 9.51406 22.4919L14.9068 13.2045C15.2574 13.2887 15.6235 13.3333 15.9999 13.3333Z" fill="black"/>
</svg>
