<svg width="32" height="32" viewBox="0 0 32 32" fill="none" xmlns="http://www.w3.org/2000/svg">
<path fill-rule="evenodd" clip-rule="evenodd" d="M26.0428 7.36517C25.665 7.3343 25.1687 7.33327 24.3999 7.33327H14.6666C13.9302 7.33327 13.3333 6.73631 13.3333 5.99993C13.3333 5.26355 13.9302 4.6666 14.6666 4.6666L24.4513 4.6666C25.1542 4.66658 25.7605 4.66656 26.26 4.70736C26.7871 4.75043 27.3114 4.84552 27.8159 5.10258C28.5685 5.48607 29.1805 6.09799 29.564 6.85064C29.821 7.35515 29.9161 7.87944 29.9592 8.40656C30 8.90599 30 9.51233 29.9999 10.2152V12.0426C30 12.6275 30 13.1321 29.9715 13.5498C29.9415 13.9895 29.8755 14.4294 29.6955 14.864C29.2895 15.8441 28.5108 16.6228 27.5307 17.0288C27.0961 17.2088 26.6562 17.2748 26.2164 17.3048C25.7988 17.3333 25.2941 17.3333 24.7093 17.3333H24.6666C23.9302 17.3333 23.3333 16.7363 23.3333 15.9999C23.3333 15.2636 23.9302 14.6666 24.6666 14.6666C25.3061 14.6666 25.7189 14.6659 26.0349 14.6443C26.3389 14.6236 26.4547 14.5881 26.5102 14.5651C26.8369 14.4298 27.0964 14.1702 27.2318 13.8435C27.2548 13.788 27.2902 13.6723 27.311 13.3683C27.3325 13.0523 27.3333 12.6394 27.3333 11.9999V10.2666C27.3333 9.49786 27.3322 9.0015 27.3014 8.62372C27.2718 8.2615 27.2215 8.12721 27.1879 8.06128C27.0601 7.8104 26.8561 7.60642 26.6053 7.47859C26.5393 7.445 26.405 7.39477 26.0428 7.36517ZM7.29062 14.6666L7.33327 14.6666C8.06965 14.6666 8.6666 15.2636 8.6666 15.9999C8.6666 16.7363 8.06965 17.3333 7.33327 17.3333C6.69377 17.3333 6.28092 17.334 5.96495 17.3555C5.66095 17.3763 5.54518 17.4118 5.48969 17.4348C5.16299 17.5701 4.90342 17.8297 4.7681 18.1564C4.74511 18.2118 4.70962 18.3276 4.68888 18.6316C4.66732 18.9476 4.6666 19.3604 4.6666 19.9999V21.7333C4.6666 22.502 4.66764 22.9984 4.6985 23.3762C4.7281 23.7384 4.77834 23.8727 4.81193 23.9386C4.93976 24.1895 5.14373 24.3934 5.39461 24.5213C5.46054 24.5549 5.59483 24.6051 5.95705 24.6347C6.33483 24.6656 6.8312 24.6666 7.59994 24.6666H17.3333C18.0696 24.6666 18.6666 25.2636 18.6666 25.9999C18.6666 26.7363 18.0696 27.3333 17.3333 27.3333H7.54851C6.84566 27.3333 6.23932 27.3333 5.7399 27.2925C5.21277 27.2494 4.68848 27.1544 4.18397 26.8973C3.43132 26.5138 2.8194 25.9019 2.43591 25.1492C2.17885 24.6447 2.08376 24.1204 2.04069 23.5933C1.99989 23.0939 1.99991 22.4875 1.99993 21.7847L1.99993 19.9573C1.99992 19.3724 1.9999 18.8678 2.0284 18.4501C2.05841 18.0103 2.12441 17.5704 2.30442 17.1359C2.71039 16.1558 3.48909 15.3771 4.4692 14.9711C4.90377 14.7911 5.34365 14.7251 5.78343 14.6951C6.2011 14.6666 6.70575 14.6666 7.29062 14.6666Z" fill="black"/>
<path fill-rule="evenodd" clip-rule="evenodd" d="M13.7024 11.3333C13.7128 11.3333 13.7231 11.3333 13.7333 11.3333H18.2666C18.2767 11.3333 18.287 11.3333 18.2975 11.3333C18.4563 11.3332 18.646 11.3331 18.813 11.3468C19.0067 11.3626 19.284 11.4032 19.5746 11.5513C19.9509 11.743 20.2569 12.049 20.4486 12.4253C20.5967 12.7159 20.6373 12.9932 20.6531 13.1868C20.6667 13.3539 20.6667 13.5436 20.6666 13.7024C20.6666 13.7128 20.6666 13.7231 20.6666 13.7333V18.2666C20.6666 18.2767 20.6666 18.287 20.6666 18.2975C20.6667 18.4563 20.6667 18.646 20.6531 18.813C20.6373 19.0067 20.5967 19.284 20.4486 19.5746C20.2569 19.9509 19.9509 20.2569 19.5746 20.4486C19.284 20.5967 19.0067 20.6373 18.813 20.6531C18.646 20.6667 18.4563 20.6667 18.2975 20.6666C18.287 20.6666 18.2767 20.6666 18.2666 20.6666H13.7333C13.7231 20.6666 13.7128 20.6666 13.7024 20.6666C13.5436 20.6667 13.3539 20.6667 13.1868 20.6531C12.9932 20.6373 12.7159 20.5967 12.4253 20.4486C12.049 20.2569 11.743 19.9509 11.5513 19.5746C11.4032 19.284 11.3626 19.0067 11.3468 18.813C11.3331 18.646 11.3332 18.4563 11.3333 18.2975C11.3333 18.287 11.3333 18.2767 11.3333 18.2666V13.7333C11.3333 13.7231 11.3333 13.7128 11.3333 13.7024C11.3332 13.5436 11.3331 13.3539 11.3468 13.1868C11.3626 12.9932 11.4032 12.7159 11.5513 12.4253C11.743 12.049 12.049 11.743 12.4253 11.5513C12.7159 11.4032 12.9932 11.3626 13.1868 11.3468C13.3539 11.3331 13.5436 11.3332 13.7024 11.3333Z" fill="black"/>
<path fill-rule="evenodd" clip-rule="evenodd" d="M23.7024 21.3333C23.7128 21.3333 23.7231 21.3333 23.7333 21.3333H28.2666C28.2767 21.3333 28.287 21.3333 28.2975 21.3333C28.4563 21.3332 28.646 21.3331 28.813 21.3468C29.0067 21.3626 29.284 21.4032 29.5746 21.5513C29.9509 21.743 30.2569 22.049 30.4486 22.4253C30.5967 22.7159 30.6373 22.9932 30.6531 23.1868C30.6667 23.3539 30.6667 23.5436 30.6666 23.7024C30.6666 23.7128 30.6666 23.7231 30.6666 23.7333V28.2666C30.6666 28.2767 30.6666 28.287 30.6666 28.2975C30.6667 28.4563 30.6667 28.646 30.6531 28.813C30.6373 29.0067 30.5967 29.284 30.4486 29.5746C30.2569 29.9509 29.9509 30.2569 29.5746 30.4486C29.284 30.5967 29.0067 30.6373 28.813 30.6531C28.646 30.6667 28.4563 30.6667 28.2975 30.6666C28.287 30.6666 28.2767 30.6666 28.2666 30.6666H23.7333C23.7231 30.6666 23.7128 30.6666 23.7024 30.6666C23.5436 30.6667 23.3539 30.6667 23.1868 30.6531C22.9932 30.6373 22.7159 30.5967 22.4253 30.4486C22.049 30.2569 21.743 29.9509 21.5513 29.5746C21.4032 29.284 21.3626 29.0067 21.3468 28.813C21.3331 28.646 21.3332 28.4563 21.3333 28.2975C21.3333 28.287 21.3333 28.2767 21.3333 28.2666V23.7333C21.3333 23.7231 21.3333 23.7128 21.3333 23.7024C21.3332 23.5436 21.3331 23.3539 21.3468 23.1868C21.3626 22.9932 21.4032 22.7159 21.5513 22.4253C21.743 22.049 22.049 21.743 22.4253 21.5513C22.7159 21.4032 22.9932 21.3626 23.1868 21.3468C23.3539 21.3331 23.5436 21.3332 23.7024 21.3333Z" fill="black"/>
<path fill-rule="evenodd" clip-rule="evenodd" d="M3.70242 1.33326C3.71284 1.33326 3.72313 1.33327 3.73327 1.33327H8.2666C8.27674 1.33327 8.28703 1.33326 8.29745 1.33326C8.45627 1.3332 8.64595 1.33313 8.81304 1.34678C9.00667 1.3626 9.28399 1.40319 9.57458 1.55126C9.95091 1.743 10.2569 2.04896 10.4486 2.42529C10.5967 2.71588 10.6373 2.9932 10.6531 3.18683C10.6667 3.35392 10.6667 3.54359 10.6666 3.70242C10.6666 3.71284 10.6666 3.72313 10.6666 3.73327V8.2666C10.6666 8.27674 10.6666 8.28703 10.6666 8.29745C10.6667 8.45627 10.6667 8.64595 10.6531 8.81304C10.6373 9.00667 10.5967 9.28399 10.4486 9.57458C10.2569 9.95091 9.95091 10.2569 9.57458 10.4486C9.28399 10.5967 9.00667 10.6373 8.81304 10.6531C8.64595 10.6667 8.45627 10.6667 8.29745 10.6666C8.28703 10.6666 8.27674 10.6666 8.2666 10.6666H3.73327C3.72313 10.6666 3.71284 10.6666 3.70242 10.6666C3.54359 10.6667 3.35392 10.6667 3.18683 10.6531C2.9932 10.6373 2.71588 10.5967 2.42529 10.4486C2.04896 10.2569 1.743 9.95091 1.55126 9.57458C1.40319 9.28399 1.3626 9.00667 1.34678 8.81304C1.33313 8.64595 1.3332 8.45627 1.33326 8.29745C1.33326 8.28703 1.33327 8.27674 1.33327 8.2666V3.73327C1.33327 3.72313 1.33326 3.71284 1.33326 3.70242C1.3332 3.54359 1.33313 3.35392 1.34678 3.18683C1.3626 2.9932 1.40319 2.71588 1.55126 2.42529C1.743 2.04896 2.04896 1.743 2.42529 1.55126C2.71588 1.40319 2.9932 1.3626 3.18683 1.34678C3.35392 1.33313 3.54359 1.3332 3.70242 1.33326Z" fill="black"/>
</svg>
