<svg width="32" height="32" viewBox="0 0 32 32" fill="none" xmlns="http://www.w3.org/2000/svg">
<path fill-rule="evenodd" clip-rule="evenodd" d="M1.47406 15.4038C1.80338 14.7452 2.60428 14.4782 3.26292 14.8075L16 21.176L28.737 14.8075C29.3957 14.4782 30.1965 14.7452 30.5259 15.4038C30.8552 16.0624 30.5882 16.8633 29.9296 17.1927L17.0733 23.6208C17.0634 23.6257 17.052 23.6316 17.0392 23.6381C16.9148 23.7016 16.6573 23.833 16.3688 23.8871C16.125 23.9328 15.8749 23.9328 15.6312 23.8871C15.3426 23.833 15.0851 23.7016 14.9607 23.6381C14.9479 23.6316 14.9365 23.6257 14.9267 23.6208L2.07035 17.1927C1.41171 16.8633 1.14474 16.0624 1.47406 15.4038Z" fill="black"/>
<path fill-rule="evenodd" clip-rule="evenodd" d="M1.47406 22.0705C1.80338 21.4118 2.60428 21.1449 3.26292 21.4742L16 27.8427L28.737 21.4742C29.3957 21.1449 30.1965 21.4118 30.5259 22.0705C30.8552 22.7291 30.5882 23.53 29.9296 23.8593L17.0733 30.2875C17.0634 30.2924 17.052 30.2982 17.0392 30.3048C16.9148 30.3683 16.6573 30.4996 16.3688 30.5538C16.125 30.5995 15.8749 30.5995 15.6312 30.5538C15.3426 30.4996 15.0851 30.3682 14.9607 30.3048C14.9479 30.2982 14.9365 30.2924 14.9267 30.2875L2.07035 23.8593C1.41171 23.53 1.14474 22.7291 1.47406 22.0705Z" fill="black"/>
<path fill-rule="evenodd" clip-rule="evenodd" d="M15.6312 1.44641C15.8749 1.40068 16.125 1.40068 16.3688 1.44641C16.6574 1.50055 16.9148 1.63193 17.0392 1.6954C17.052 1.70194 17.0634 1.70776 17.0733 1.7127L29.9296 8.14085C30.3813 8.36671 30.6666 8.82839 30.6666 9.33342C30.6666 9.83845 30.3813 10.3001 29.9296 10.526L17.0733 16.9541C17.0634 16.9591 17.052 16.9649 17.0392 16.9714C16.9148 17.0349 16.6573 17.1663 16.3688 17.2204C16.125 17.2662 15.8749 17.2662 15.6312 17.2204C15.3426 17.1663 15.0851 17.0349 14.9607 16.9714C14.9479 16.9649 14.9365 16.9591 14.9267 16.9541L2.07035 10.526C1.61864 10.3001 1.3333 9.83845 1.3333 9.33342C1.3333 8.82839 1.61864 8.36671 2.07035 8.14085L14.9267 1.7127C14.9365 1.70776 14.9479 1.70194 14.9607 1.6954C15.0851 1.63192 15.3426 1.50055 15.6312 1.44641Z" fill="black"/>
</svg>
