<svg width="32" height="32" viewBox="0 0 32 32" fill="none" xmlns="http://www.w3.org/2000/svg">
<path d="M7.33325 2.66659C7.33325 1.93021 6.7363 1.33325 5.99992 1.33325C5.26354 1.33325 4.66659 1.93021 4.66659 2.66659V4.66659H2.66659C1.93021 4.66659 1.33325 5.26354 1.33325 5.99992C1.33325 6.7363 1.93021 7.33325 2.66659 7.33325H4.66659V9.33325C4.66659 10.0696 5.26354 10.6666 5.99992 10.6666C6.7363 10.6666 7.33325 10.0696 7.33325 9.33325V7.33325H9.33325C10.0696 7.33325 10.6666 6.7363 10.6666 5.99992C10.6666 5.26354 10.0696 4.66659 9.33325 4.66659H7.33325V2.66659Z" fill="black"/>
<path d="M7.33325 22.6666C7.33325 21.9302 6.7363 21.3333 5.99992 21.3333C5.26354 21.3333 4.66659 21.9302 4.66659 22.6666V24.6666H2.66659C1.93021 24.6666 1.33325 25.2635 1.33325 25.9999C1.33325 26.7363 1.93021 27.3333 2.66659 27.3333H4.66659V29.3333C4.66659 30.0696 5.26354 30.6666 5.99992 30.6666C6.7363 30.6666 7.33325 30.0696 7.33325 29.3333V27.3333H9.33325C10.0696 27.3333 10.6666 26.7363 10.6666 25.9999C10.6666 25.2635 10.0696 24.6666 9.33325 24.6666H7.33325V22.6666Z" fill="black"/>
<path d="M18.5777 3.52128C18.3797 3.00636 17.8849 2.66659 17.3333 2.66659C16.7816 2.66659 16.2868 3.00636 16.0888 3.52128L13.7766 9.5331C13.376 10.5745 13.2502 10.8746 13.078 11.1167C12.9052 11.3597 12.693 11.5719 12.45 11.7447C12.2079 11.9168 11.9078 12.0427 10.8664 12.4432L4.85461 14.7555C4.33969 14.9535 3.99992 15.4482 3.99992 15.9999C3.99992 16.5516 4.33969 17.0463 4.85461 17.2444L10.8664 19.5566C11.9078 19.9572 12.2079 20.083 12.45 20.2552C12.693 20.4279 12.9052 20.6402 13.078 20.8831C13.2502 21.1253 13.376 21.4253 13.7766 22.4667L16.0888 28.4786C16.2868 28.9935 16.7816 29.3333 17.3333 29.3333C17.8849 29.3333 18.3797 28.9935 18.5777 28.4786L20.89 22.4667C21.2905 21.4253 21.4164 21.1253 21.5885 20.8831C21.7613 20.6402 21.9735 20.4279 22.2165 20.2552C22.4586 20.083 22.7587 19.9572 23.8001 19.5566L29.8119 17.2444C30.3268 17.0463 30.6666 16.5516 30.6666 15.9999C30.6666 15.4482 30.3268 14.9535 29.8119 14.7555L23.8001 12.4432C22.7587 12.0427 22.4586 11.9168 22.2165 11.7447C21.9735 11.5719 21.7613 11.3597 21.5885 11.1167C21.4164 10.8746 21.2905 10.5745 20.8899 9.5331L18.5777 3.52128Z" fill="black"/>
</svg>
