<svg width="32" height="32" viewBox="0 0 32 32" fill="none" xmlns="http://www.w3.org/2000/svg">
<path fill-rule="evenodd" clip-rule="evenodd" d="M11.0359 1.3335H20.9642C21.1231 1.33344 21.3127 1.33337 21.4798 1.34702C21.6735 1.36284 21.9508 1.40343 22.2414 1.5515C22.6177 1.74325 22.9237 2.04921 23.1154 2.42553C23.2635 2.71613 23.3041 2.99345 23.3199 3.18707C23.3335 3.35417 23.3335 3.54385 23.3334 3.70267V6.96435C23.3335 7.12317 23.3335 7.31286 23.3199 7.47995C23.3041 7.67358 23.2635 7.9509 23.1154 8.24149C22.9237 8.61782 22.6177 8.92378 22.2414 9.11552C21.9508 9.26359 21.6735 9.30418 21.4798 9.32C21.4324 9.32388 21.3831 9.32665 21.3332 9.32863V14.0018C21.3332 14.8085 21.3439 14.9672 21.379 15.0976C21.4196 15.2483 21.4863 15.3908 21.5762 15.5185C21.6539 15.6289 21.7689 15.7388 22.3887 16.2552L27.4148 20.4435C27.8839 20.8336 28.2973 21.1774 28.6044 21.6137C28.874 21.9968 29.0742 22.4243 29.1959 22.8766C29.3345 23.3919 29.3339 23.9295 29.3333 24.5396C29.3332 25.0638 29.3336 25.5879 29.3336 26.1121C29.334 26.6197 29.3343 27.0568 29.2566 27.4473C28.941 29.0341 27.7006 30.2745 26.1139 30.5901C25.7234 30.6678 25.2863 30.6674 24.7787 30.667H7.22164C6.71405 30.6674 6.27693 30.6678 5.88646 30.5901C5.29233 30.4719 4.74676 30.2241 4.28012 29.877C3.80914 29.5268 3.41894 29.0758 3.13978 28.5541C2.95685 28.2123 2.82188 27.8404 2.74368 27.4473C2.66601 27.0568 2.66636 26.6197 2.66676 26.1121C2.66676 25.588 2.66654 25.0638 2.66647 24.5396C2.66583 23.9295 2.66527 23.3919 2.80391 22.8766C2.92561 22.4243 3.12581 21.9968 3.3954 21.6137C3.70251 21.1774 4.11587 20.8336 4.58497 20.4435L9.6111 16.2552C10.2308 15.7388 10.3459 15.6289 10.4236 15.5185C10.5135 15.3908 10.5802 15.2483 10.6208 15.0976C10.6558 14.9672 10.6666 14.8085 10.6666 14.0018V9.32861C10.6168 9.32664 10.5676 9.32387 10.5203 9.32C10.3267 9.30418 10.0493 9.26359 9.75874 9.11552C9.38242 8.92378 9.07646 8.61782 8.88471 8.24149C8.73665 7.9509 8.69605 7.67358 8.68023 7.47995C8.66658 7.31286 8.66665 7.12319 8.66672 6.96436V3.70266C8.66665 3.54384 8.66658 3.35416 8.68023 3.18707C8.69605 2.99345 8.73665 2.71613 8.88471 2.42553C9.07646 2.04921 9.38242 1.74325 9.75874 1.5515C10.0493 1.40343 10.3267 1.36284 10.5203 1.34702C10.6874 1.33337 10.8771 1.33344 11.0359 1.3335ZM24.3173 21.3336H7.68248L11.4148 18.2234C11.8839 17.8334 12.2973 17.4896 12.6044 17.0532C12.874 16.6702 13.0742 16.2427 13.1959 15.7904C13.3345 15.2751 13.3339 14.7375 13.3333 14.1274L13.3332 9.33351H18.6666L18.6665 14.1274C18.6658 14.7375 18.6653 15.2751 18.8039 15.7904C18.9256 16.2427 19.1258 16.6702 19.3954 17.0532C19.7025 17.4896 20.1159 17.8334 20.585 18.2235L24.3173 21.3336Z" fill="black"/>
</svg>
