<svg width="32" height="32" viewBox="0 0 32 32" fill="none" xmlns="http://www.w3.org/2000/svg">
<path d="M9.33329 3.44789L4.58574 8.19544C4.16577 8.61542 4.46321 9.33351 5.05715 9.33351H9.33329V3.44789Z" fill="black"/>
<path d="M12 9.33351V2.66699L25.8356 2.66959C26.4295 2.6697 26.7268 3.38773 26.3069 3.80766L20.9763 9.13825C20.8512 9.26328 20.6817 9.33351 20.5049 9.33351H12Z" fill="black"/>
<path d="M9.33329 12.0002H3.33329C2.9651 12.0002 2.66663 12.2987 2.66663 12.6668L2.66934 25.8358C2.66946 26.4297 3.38748 26.727 3.80741 26.3071L9.13803 20.9765C9.26305 20.8515 9.33329 20.6819 9.33329 20.5051V12.0002Z" fill="black"/>
<path d="M5.69303 28.1927C5.2731 28.6127 5.57043 29.3307 6.1643 29.3308L19.3333 29.3335C19.7015 29.3335 20 29.035 20 28.6668V22.6668H11.4951C11.3182 22.6668 11.1487 22.7371 11.0237 22.8621L5.69303 28.1927Z" fill="black"/>
<path d="M20 20.0002H12.6666C12.2984 20.0002 12 19.7017 12 19.3335V12.0002H19.3333C19.7015 12.0002 20 12.2987 20 12.6668V20.0002Z" fill="black"/>
<path d="M22.6666 22.6668V26.943C22.6666 27.5369 23.3847 27.8344 23.8047 27.4144L27.4142 23.8049C27.8341 23.3849 27.5367 22.6668 26.9428 22.6668H22.6666Z" fill="black"/>
<path d="M29.333 19.3334C29.3331 19.7016 29.0346 20.0002 28.6664 20.0002H22.6666V11.4953C22.6666 11.3185 22.7369 11.1489 22.8619 11.0239L28.1925 5.69328C28.6124 5.27335 29.3304 5.57068 29.3305 6.16456L29.333 19.3334Z" fill="black"/>
</svg>
