<svg width="32" height="32" viewBox="0 0 32 32" fill="none" xmlns="http://www.w3.org/2000/svg">
<path fill-rule="evenodd" clip-rule="evenodd" d="M13.3334 25.3333C13.7861 25.3333 14.2312 25.3011 14.6667 25.2388C10.1437 24.5918 6.66671 20.702 6.66671 16C6.66671 9.37258 12.0393 4 18.6667 4C25.2941 4 30.6667 9.37258 30.6667 16C30.6667 16.7364 30.0698 17.3333 29.3334 17.3333C28.597 17.3333 28 16.7364 28 16C28 10.8453 23.8214 6.66667 18.6667 6.66667C18.214 6.66667 17.7688 6.6989 17.3334 6.76119C21.8564 7.40816 25.3334 11.298 25.3334 16C25.3334 22.6274 19.9608 28 13.3334 28C6.70596 28 1.33337 22.6274 1.33337 16C1.33337 15.2636 1.93033 14.6667 2.66671 14.6667C3.40309 14.6667 4.00004 15.2636 4.00004 16C4.00004 21.1547 8.17872 25.3333 13.3334 25.3333ZM16 13.3333C14.5273 13.3333 13.3334 14.5272 13.3334 16C13.3334 17.4728 14.5273 18.6667 16 18.6667C17.4728 18.6667 18.6667 17.4728 18.6667 16C18.6667 14.5272 17.4728 13.3333 16 13.3333Z" fill="black"/>
</svg>
